<?xml version="1.0" encoding="utf-8"?>
<!-- Generator: Adobe Illustrator 16.0.4, SVG Export Plug-In . SVG Version: 6.00 Build 0)  -->
<!DOCTYPE svg PUBLIC "-//W3C//DTD SVG 1.1//EN" "http://www.w3.org/Graphics/SVG/1.1/DTD/svg11.dtd">
<svg version="1.1" id="Layer_1" xmlns="http://www.w3.org/2000/svg" xmlns:xlink="http://www.w3.org/1999/xlink" x="0px" y="0px"
	 width="520.535px" height="195.7px" viewBox="0 0 520.535 195.7" enable-background="new 0 0 520.535 195.7" xml:space="preserve">
<g>
	<path fill="#F25E23" d="M488.712,42.875v2.152c2.137,0.238,4.751,0.474,6.887,1.664c2.373,1.43,4.274,2.611,4.274,6.42
		c0,4.76-0.712,9.759-3.801,17.852l-15.91,43.563h-0.238l-15.675-44.754c-3.086-8.329-4.276-12.616-4.276-16.9
		c0-3.094,1.19-4.512,3.563-5.941c1.899-1.19,4.985-1.665,7.127-1.903v-2.152h-26.92c-11.546,0.824-9.295-2.1-18.461-2.144
		c-6.648-0.031-12.111,2.857-15.911,5.952c-4.038,3.331-9.737,8.271-12.827,19.698l-0.235,0.972c0-1.189,0.235-22.098,0.235-22.812
		s-0.474-1.666-1.424-1.666h-25.009h-11.327h-11.71V0.979h-2.372c-7.601,29.042-20.728,36.672-38.063,40.005l0.016,0.053
		c-1.42,0.264-3.746,0.596-7.356,0.863c-5.69,0.288-13.871-1.675-21.983-1.675c-21.478,0-33.885,14.83-33.885,30.376
		c0,19.374,14.078,27.983,28.633,34.203c14.797,6.696,24.58,12.916,24.58,22.723c0,10.03-11.059,15.084-22.271,15.315
		c-9.485,0.195-30.766,1.005-35.401-19.188V59.537c0-6.188,0.237-11.187,0.237-14.996c0-1.19-0.475-1.666-1.662-1.666h-24.918
		h-11.181H189.59V0.979h-2.375c-7.524,28.754-20.469,36.269-37.551,39.649c-6.163,0.306-11.242,3.021-14.839,5.949
		c-4.057,3.348-9.783,8.326-12.886,19.806l-0.239,0.973c0-1.195,0.239-22.213,0.239-22.932c0-0.717-0.477-1.673-1.432-1.673h-36.51
		v2.168c2.147,0.238,5.727,0.477,8.112,2.152c2.148,1.674,3.343,2.376,4.057,6.921c0.479,3.827,0.717,14.35,0.717,18.655v41.379
		c0,6.696-0.372,15.225-1.193,19.852c-0.924,5.203-1.968,6.77-3.771,7.764c-1.613,0.541-3.408,0.848-4.805,0.848
		c-2.387,0-5.267-0.717-6.46-2.15c-2.148-2.151-2.625-7.178-2.625-17.941c0-14.826,0.477-47.834,0.477-55.728
		c0-18.656-16.704-25.83-37.225-25.83c-11.692,0-26.01,4.544-31.499,11.479c-2.147,2.871-3.818,5.979-3.818,10.046
		c0,7.176,4.772,10.523,11.216,10.523c7.637,0,11.692-3.588,11.692-11.48c0-6.696,1.433-12.438,3.103-14.59
		c1.67-2.153,4.057-3.109,8.829-3.109c10.022,0,12.647,2.87,12.647,14.589c0,3.59-0.238,11.723-0.238,15.069
		c0,7.416-4.772,15.308-20.521,20.569c-8.592,3.35-20.046,4.307-26.728,11.72C1.192,110.678,0,114.745,0,121.441
		c0,17.938,12.646,26.072,26.248,26.072c13.841,0,22.669-5.981,26.249-15.789h0.478c0.239,6.937,1.671,11.006,4.534,12.917
		c2.873,1.992,7.402,2.748,13.361,2.852v0.008h0.515c0.309,0.002,0.603,0.014,0.919,0.014c0.199,0,0.396-0.012,0.594-0.014h63.359
		v-2.144v-0.506v-0.449c-1.91-0.239-4.057-0.479-5.965-1.196c-4.535-1.914-6.445-3.35-7.874-9.807
		c-0.955-4.542-0.718-11.721-0.718-18.177V97.521c0-5.979,0.239-12.676,0.478-14.589c1.669-18.416,10.262-30.137,14.318-30.137
		c2.624,0,3.578,1.675,5.488,5.979c1.908,5.502,5.25,10.046,11.931,10.046c4.791,0,8.454-2.168,10.519-5.554
		c-0.303,20.528-0.73,54.475-0.73,58.162c0,9.045,1.899,14.52,6.888,19.045c4.986,4.761,12.111,6.664,21.849,6.664
		c10.218,0,56.784,0,81.415-0.09c3.184,0.06,5.533,0.09,6.562,0.09c1.263,0,2.511-0.049,3.745-0.146
		c0.264-0.002,0.521-0.003,0.768-0.006l-0.311-0.035c17.451-1.525,31.589-12.652,31.589-32.82c0-18.418-13.838-26.311-31.021-33.485
		c-13.36-5.261-22.67-10.522-22.67-22.243c0-10.283,6.205-15.307,14.558-15.307c5.303,0,10.924,1.947,15.808,5.566
		c0,0.001,0.001,0.002,0.001,0.002c0.003,0.002,0.005,0.003,0.005,0.004c1.049,0.777,2.066,1.629,3.036,2.56
		c0.207,0.188,0.442,0.361,0.695,0.529c1.922,1.866,3.94,4.342,5.073,7.267c2.095,5.403,5.227,9.997,11.877,9.997
		c3.396,0,6.223-1.102,8.311-2.951c-0.3,20.674-0.689,51.836-0.689,55.36c0,9.045,1.899,14.52,6.888,19.045
		c4.239,4.046,10.03,6.023,17.647,6.527v0.137h65.076v-2.635h-0.006v-0.461c-1.899-0.234-4.037-0.475-5.938-1.188
		c-4.513-1.903-6.413-3.333-7.837-9.76c-0.949-4.523-0.714-11.665-0.714-18.091V97.387c0-5.951,0.236-12.616,0.478-14.521
		c1.66-18.329,10.209-29.994,14.249-29.994c2.609,0,3.56,1.668,5.461,5.952c1.9,5.475,5.228,9.997,11.876,9.997
		c3.117,0,5.745-0.932,7.771-2.515c1.037,2.549,2.172,5.446,3.41,8.703l26.6,70.225c0.948,2.856,0.235,5.713,0,6.188
		c0,0-3.562,9.045-4.037,10.474c-5.228,13.567-11.163,22.377-15.438,22.377c-3.325,0-4.751-3.097-7.361-7.616
		c-2.851-5.238-4.989-7.855-11.399-7.855c-6.889,0-11.398,4.523-11.398,10.949c0,10.475,7.6,15.949,17.099,15.949
		c8.074,0,14.961-3.095,19.71-9.521c4.99-6.904,9.265-16.426,12.351-24.281c6.891-17.615,18.052-46.656,34.677-92.36
		c3.323-9.285,5.463-14.522,7.363-17.617c2.849-4.521,6.887-6.179,12.822-6.892v-2.152L488.712,42.875L488.712,42.875z
		 M52.735,118.315c0,12.678-7.636,21.78-13.601,21.78c-8.592,0-12.887-5.979-12.887-19.136c0-6.693,1.194-13.631,3.342-17.459
		c2.146-3.824,4.772-4.752,10.738-8.101c4.295-2.154,8.829-4.546,12.646-9.806L52.735,118.315z M214.032,118.812
		c0,5.235,0,11.426-0.95,14.757c-2.571,6.954-5.681,8.395-11.855,8.395c-9.736,0-12.587-7.896-12.587-16.467l0.95-77.365h19.819
		c3.08,0.521,3.565,2.473,4.148,6.169c0.475,3.81,0.475,14.045,0.475,18.567V118.812z M371.607,113.812
		c0,6.666,0,15.235-1.187,19.758c-0.063,0.287-0.129,0.55-0.194,0.817c-2.599,6.123-5.599,8.547-11.516,8.547
		c-9.736,0-12.587-8.866-12.587-17.438l0.949-77.365h19.913c2.639,0.4,3.33,2.253,3.908,5.932
		c0.476,3.809,0.713,14.282,0.713,18.566V113.812L371.607,113.812z"/>
	<path fill="#F25E23" d="M225.182,31.752c7.852,0,16.516-5.701,16.516-15.468C241.697,5.972,233.033,0,225.182,0
		c-7.581,0-15.973,6.515-15.973,16.284C209.209,25.51,217.33,31.752,225.182,31.752z"/>
</g>
</svg>
