<?xml version="1.0" encoding="UTF-8" standalone="no"?>
<!DOCTYPE svg PUBLIC "-//W3C//DTD SVG 1.1//EN" "http://www.w3.org/Graphics/SVG/1.1/DTD/svg11.dtd">
<svg width="100%" height="100%" viewBox="0 0 521 196" version="1.1" xmlns="http://www.w3.org/2000/svg" xmlns:xlink="http://www.w3.org/1999/xlink" xml:space="preserve" xmlns:serif="http://www.serif.com/" style="fill-rule:evenodd;clip-rule:evenodd;stroke-linejoin:round;stroke-miterlimit:1.41421;">
    <g>
        <path d="M488.712,42.875L488.712,45.027C490.849,45.265 493.463,45.501 495.599,46.691C497.972,48.121 499.873,49.302 499.873,53.111C499.873,57.871 499.161,62.87 496.072,70.963L480.162,114.526L479.924,114.526L464.249,69.772C461.163,61.443 459.973,57.156 459.973,52.872C459.973,49.778 461.163,48.36 463.536,46.931C465.435,45.741 468.521,45.266 470.663,45.028L470.663,42.876L443.743,42.876C432.197,43.7 434.448,40.776 425.282,40.732C418.634,40.701 413.171,43.589 409.371,46.684C405.333,50.015 399.634,54.955 396.544,66.382L396.309,67.354C396.309,66.165 396.544,45.256 396.544,44.542C396.544,43.828 396.07,42.876 395.12,42.876L370.111,42.876L358.784,42.876L347.074,42.876L347.074,0.979L344.702,0.979C337.101,30.021 323.974,37.651 306.639,40.984L306.655,41.037C305.235,41.301 302.909,41.633 299.299,41.9C293.609,42.188 285.428,40.225 277.316,40.225C255.838,40.225 243.431,55.055 243.431,70.601C243.431,89.975 257.509,98.584 272.064,104.804C286.861,111.5 296.644,117.72 296.644,127.527C296.644,137.557 285.585,142.611 274.373,142.842C264.888,143.037 243.607,143.847 238.972,123.654L238.972,59.537C238.972,53.349 239.209,48.35 239.209,44.541C239.209,43.351 238.734,42.875 237.547,42.875L212.629,42.875L201.448,42.875L189.59,42.875L189.59,0.979L187.215,0.979C179.691,29.733 166.746,37.248 149.664,40.628C143.501,40.934 138.422,43.649 134.825,46.577C130.768,49.925 125.042,54.903 121.939,66.383L121.7,67.356C121.7,66.161 121.939,45.143 121.939,44.424C121.939,43.707 121.462,42.751 120.507,42.751L83.997,42.751L83.997,44.919C86.144,45.157 89.724,45.396 92.109,47.071C94.257,48.745 95.452,49.447 96.166,53.992C96.645,57.819 96.883,68.342 96.883,72.647L96.883,114.026C96.883,120.722 96.511,129.251 95.69,133.878C94.766,139.081 93.722,140.648 91.919,141.642C90.306,142.183 88.511,142.49 87.114,142.49C84.727,142.49 81.847,141.773 80.654,140.34C78.506,138.189 78.029,133.162 78.029,122.399C78.029,107.573 78.506,74.565 78.506,66.671C78.506,48.015 61.802,40.841 41.281,40.841C29.589,40.841 15.271,45.385 9.782,52.32C7.635,55.191 5.964,58.299 5.964,62.366C5.964,69.542 10.736,72.889 17.18,72.889C24.817,72.889 28.872,69.301 28.872,61.409C28.872,54.713 30.305,48.971 31.975,46.819C33.645,44.666 36.032,43.71 40.804,43.71C50.826,43.71 53.451,46.58 53.451,58.299C53.451,61.889 53.213,70.022 53.213,73.368C53.213,80.784 48.441,88.676 32.692,93.937C24.1,97.287 12.646,98.244 5.964,105.657C1.192,110.678 0,114.745 0,121.441C0,139.379 12.646,147.513 26.248,147.513C40.089,147.513 48.917,141.532 52.497,131.724L52.975,131.724C53.214,138.661 54.646,142.73 57.509,144.641C60.382,146.633 64.911,147.389 70.87,147.493L70.87,147.501L71.385,147.501C71.694,147.503 71.988,147.515 72.304,147.515C72.503,147.515 72.7,147.503 72.898,147.501L136.257,147.501L136.257,145.357L136.257,144.851L136.257,144.402C134.347,144.163 132.2,143.923 130.292,143.206C125.757,141.292 123.847,139.856 122.418,133.399C121.463,128.857 121.7,121.678 121.7,115.222L121.7,97.521C121.7,91.542 121.939,84.845 122.178,82.932C123.847,64.516 132.44,52.795 136.496,52.795C139.12,52.795 140.074,54.47 141.984,58.774C143.892,64.276 147.234,68.82 153.915,68.82C158.706,68.82 162.369,66.652 164.434,63.266C164.131,83.794 163.704,117.741 163.704,121.428C163.704,130.473 165.603,135.948 170.592,140.473C175.578,145.234 182.703,147.137 192.441,147.137C202.659,147.137 249.225,147.137 273.856,147.047C277.04,147.107 279.389,147.137 280.418,147.137C281.681,147.137 282.929,147.088 284.163,146.991C284.427,146.989 284.684,146.988 284.931,146.985L284.62,146.95C302.071,145.425 316.209,134.298 316.209,114.13C316.209,95.712 302.371,87.819 285.188,80.645C271.828,75.384 262.518,70.123 262.518,58.402C262.518,48.119 268.723,43.095 277.076,43.095C282.379,43.095 288,45.042 292.884,48.661C292.884,48.662 292.885,48.663 292.885,48.663C292.888,48.665 292.89,48.666 292.89,48.667C293.939,49.444 294.956,50.296 295.926,51.227C296.133,51.415 296.368,51.588 296.621,51.756C298.543,53.622 300.561,56.098 301.694,59.023C303.789,64.426 306.921,69.02 313.571,69.02C316.967,69.02 319.794,67.918 321.882,66.069C321.582,86.743 321.193,117.905 321.193,121.429C321.193,130.474 323.092,135.949 328.081,140.474C332.32,144.52 338.111,146.497 345.728,147.001L345.728,147.138L410.804,147.138L410.804,144.503L410.798,144.503L410.798,144.042C408.899,143.808 406.761,143.567 404.86,142.854C400.347,140.951 398.447,139.521 397.023,133.094C396.074,128.571 396.309,121.429 396.309,115.003L396.309,97.387C396.309,91.436 396.545,84.771 396.787,82.866C398.447,64.537 406.996,52.872 411.036,52.872C413.645,52.872 414.596,54.54 416.497,58.824C418.397,64.299 421.725,68.821 428.373,68.821C431.49,68.821 434.118,67.889 436.144,66.306C437.181,68.855 438.316,71.752 439.554,75.009L466.154,145.234C467.102,148.09 466.389,150.947 466.154,151.422C466.154,151.422 462.592,160.467 462.117,161.896C456.889,175.463 450.954,184.273 446.679,184.273C443.354,184.273 441.928,181.176 439.318,176.657C436.467,171.419 434.329,168.802 427.919,168.802C421.03,168.802 416.521,173.325 416.521,179.751C416.521,190.226 424.121,195.7 433.62,195.7C441.694,195.7 448.581,192.605 453.33,186.179C458.32,179.275 462.595,169.753 465.681,161.898C472.572,144.283 483.733,115.242 500.358,69.538C503.681,60.253 505.821,55.016 507.721,51.921C510.57,47.4 514.608,45.742 520.543,45.029L520.543,42.877L488.712,42.875ZM52.735,118.315C52.735,130.993 45.099,140.095 39.134,140.095C30.542,140.095 26.247,134.116 26.247,120.959C26.247,114.266 27.441,107.328 29.589,103.5C31.735,99.676 34.361,98.748 40.327,95.399C44.622,93.245 49.156,90.853 52.973,85.593L52.735,118.315ZM214.032,118.812C214.032,124.047 214.032,130.238 213.082,133.569C210.511,140.523 207.401,141.964 201.227,141.964C191.491,141.964 188.64,134.068 188.64,125.497L189.59,48.132L209.409,48.132C212.489,48.653 212.974,50.605 213.557,54.301C214.032,58.111 214.032,68.346 214.032,72.868L214.032,118.812ZM371.607,113.812C371.607,120.478 371.607,129.047 370.42,133.57C370.357,133.857 370.291,134.12 370.226,134.387C367.627,140.51 364.627,142.934 358.71,142.934C348.974,142.934 346.123,134.068 346.123,125.496L347.072,48.131L366.985,48.131C369.624,48.531 370.315,50.384 370.893,54.063C371.369,57.872 371.606,68.345 371.606,72.629L371.606,113.812L371.607,113.812Z" style="fill:rgb(241,241,241);fill-rule:nonzero;"/>
        <path d="M225.182,31.752C233.034,31.752 241.698,26.051 241.698,16.284C241.697,5.972 233.033,0 225.182,0C217.601,0 209.209,6.515 209.209,16.284C209.209,25.51 217.33,31.752 225.182,31.752Z" style="fill:rgb(241,241,241);fill-rule:nonzero;"/>
    </g>
</svg>
